<svg xmlns="http://www.w3.org/2000/svg" width="792" height="548.198" viewBox="0 0 792 548.198">
    <defs>
        <clipPath id="2brq7jurra">
            <path data-name="Rectángulo 7564" style="fill:none" d="M0 0h792v548.198H0z"/>
        </clipPath>
    </defs>
    <g style="mix-blend-mode:multiply;isolation:isolate">
        <g data-name="Grupo 8141" style="clip-path:url(#2brq7jurra)">
            <path data-name="Trazado 34736" d="M792 11.363a11.481 11.481 0 0 0-3.232-8.046A10.759 10.759 0 0 0 781 0H11a10.758 10.758 0 0 0-7.768 3.317A11.481 11.481 0 0 0 0 11.363v525.471a11.481 11.481 0 0 0 3.232 8.046A10.758 10.758 0 0 0 11 548.2h770a10.759 10.759 0 0 0 7.768-3.318 11.481 11.481 0 0 0 3.232-8.048zM396 391.5c-45.555 0-82.485-54.583-82.485-118.7 0-27.506 3.668-64.213 15.013-84.081 15.131-26.5 41.46-32.014 67.472-32.014 28.335 0 55.871 9.225 70.721 39.856 9.025 18.616 11.764 52 11.764 76.239 0 64.117-36.93 118.7-82.485 118.7" style="fill:#00000064" stroke="red"/>
        </g>
    </g>
</svg>
