<svg xmlns="http://www.w3.org/2000/svg" width="360" height="760.001" viewBox="0 0 360 760.001">
    <path data-name="Exclusión 1" d="M-2470 1027h-360V267h360v760zm-180-562.7a207.564 207.564 0 0 0-30.173 1.985 142.136 142.136 0 0 0-14.631 2.9 114.4 114.4 0 0 0-14.047 4.555 97.046 97.046 0 0 0-13.253 6.489 88.666 88.666 0 0 0-12.25 8.7 89.173 89.173 0 0 0-11.037 11.2 99.427 99.427 0 0 0-9.609 13.993 128.153 128.153 0 0 0-11.1 27.47 267.38 267.38 0 0 0-7.2 33.5c-1.724 11.152-3.034 23.172-3.893 35.727a502.67 502.67 0 0 0-1.168 34.156 257.509 257.509 0 0 0 2.608 36.586 245.146 245.146 0 0 0 7.48 34.373 223 223 0 0 0 11.835 31.339 192.271 192.271 0 0 0 15.675 27.483 157.622 157.622 0 0 0 19 22.806 125.363 125.363 0 0 0 21.8 17.307 101.308 101.308 0 0 0 24.1 10.987A89.64 89.64 0 0 0-2650 829.7a89.639 89.639 0 0 0 25.87-3.845 101.313 101.313 0 0 0 24.1-10.987 125.361 125.361 0 0 0 21.8-17.307 157.651 157.651 0 0 0 19-22.806 192.273 192.273 0 0 0 15.674-27.483 222.937 222.937 0 0 0 11.835-31.339 245.169 245.169 0 0 0 7.48-34.373 257.509 257.509 0 0 0 2.608-36.586c0-10.069-.3-20.289-.885-30.377-.659-11.31-1.668-22.153-3-32.227a279.594 279.594 0 0 0-5.635-30.587 132.607 132.607 0 0 0-8.786-25.457 119.332 119.332 0 0 0-9.556-16.351 104.188 104.188 0 0 0-11.19-13.451 98.752 98.752 0 0 0-12.607-10.772 101.6 101.6 0 0 0-13.807-8.315 119.92 119.92 0 0 0-30.349-10.149A168.664 168.664 0 0 0-2650 464.3z" transform="translate(2830 -267)" style="fill:#00000064;mix-blend-mode:multiply;isolation:isolate" stroke="green"/>
</svg>